<svg xmlns="http://www.w3.org/2000/svg" viewBox="0 0 1239.49 1239.58" width="30px" height="30px"><defs><style>.cls-1{  fill: #FF3131;
    mix-blend-mode: difference;
    }
    </style></defs><g id="Capa_2" data-name="Capa 2"><g id="Capa_1-2" data-name="Capa 1"><g id="Capa_2-2" data-name="Capa 2"><g id="Capa_1-2-2" data-name="Capa 1-2"><path class="cls-1" d="M619.74,0C277.41,0,0,277.5,0,619.74s277.41,619.84,619.74,619.84,619.75-277.5,619.75-619.75S962,0,619.74,0Zm490.53,618.28a487.76,487.76,0,0,1-69.49,251.79L695.43,133.6C930.34,170,1110.27,373.16,1110.27,618.28ZM771.85,610.9H462L616.92,280.51ZM538,134.6,195.61,865a488.24,488.24,0,0,1-66.39-246.58C129.22,375.26,306,173.45,538,134.6ZM288.81,980.41l112.07-239H833L946.76,983.87C759.07,1151.77,474.73,1150.28,288.81,980.41Z"/></g></g></g></g></svg>