<svg xmlns="http://www.w3.org/2000/svg" viewBox="0 0 1352.1 1196.5"><defs><style>.cls-1{fill:red;}</style></defs><g id="Capa_2" data-name="Capa 2"><g id="Capa_1-2" data-name="Capa 1"><path class="cls-1" d="M582.4,128.1C378.9,127.8,285.6,85.2,214.8,5,196.4-15.6,1.5,241.4,0,460.9-.2,474.3,174.5,639,487.2,644.5,613.4,646.8,663.8,587.4,773,587c105.5-.3,152.2,30.4,304.3,129.4L919.7,1196.5l90.7-40.7,341.7-967.2C1278.4,158.8,1187.9,0,1036.8,0,926.8-.1,788.2,128.5,582.4,128.1Z"/><path d="M602,371.1C351.6,589.5,0,460.9,0,460.9-.2,474.3,174.5,639,487.2,644.5,613.4,646.8,663.8,587.4,773,587c105.5-.3,152.2,30.4,304.3,129.4L919.7,1196.5l90.7-40.7,341.7-967.2C1352.1,188.7,852.4,152.7,602,371.1Z"/></g></g></svg>