<svg xmlns="http://www.w3.org/2000/svg" viewBox="0 0 1072.94 1020.69"><defs><style>.cls-1{fill:#ff4848;}</style></defs><g id="Capa_2" data-name="Capa 2"><g id="Capa_1-2" data-name="Capa 1"><g id="Capa_2-2" data-name="Capa 2"><g id="Capa_1-2-2" data-name="Capa 1-2"><path class="cls-1" d="M539.4,2.15,663.91,385.36a3.12,3.12,0,0,0,3,2.14h402.92a3.11,3.11,0,0,1,1.83,5.62L745.66,630a3.12,3.12,0,0,0-1.13,3.47L869,1016.63a3.09,3.09,0,0,1-2,3.91,3.13,3.13,0,0,1-2.79-.44l-326-236.83a3.06,3.06,0,0,0-3.64,0l-326,236.83a3.09,3.09,0,0,1-4.33-.69,3.13,3.13,0,0,1-.44-2.78L328.39,633.42a3.09,3.09,0,0,0-1.13-3.47L1.29,393.12a3.1,3.1,0,0,1,1.82-5.62H406a3.09,3.09,0,0,0,2.95-2.14L533.5,2.15a3.1,3.1,0,0,1,5.9,0Z"/></g></g></g></g></svg>