<svg xmlns="http://www.w3.org/2000/svg" viewBox="0 0 1293 1293"><defs><style>.cls-1{font-size:120px;}.cls-1,.cls-2{fill:#fff;stroke:#fff;stroke-width:5px;font-family:ArialMT, Arial;}.cls-2{font-size:119px;}.cls-3{fill:red;}</style></defs><g id="Capa_2" data-name="Capa 2"><g id="Capa_1-2" data-name="Capa 1"><path d="M646.5,0C289.45,0,0,289.45,0,646.5S289.45,1293,646.5,1293,1293,1003.55,1293,646.5,1003.55,0,646.5,0Zm0,1107.29C392,1107.29,185.71,901,185.71,646.5S392,185.71,646.5,185.71,1107.29,392,1107.29,646.5,901,1107.29,646.5,1107.29Z"/><text class="cls-1" transform="matrix(0.52, -0.85, 0.85, 0.52, 192.41, 413)">A</text><text class="cls-1" transform="translate(230.74 348.9) rotate(-49.86)">C</text><text class="cls-1" transform="translate(282.76 286.54) rotate(-40.76)">C</text><text class="cls-1" transform="matrix(0.82, -0.57, 0.57, 0.82, 345.66, 233.9)">I</text><text class="cls-1" transform="matrix(0.88, -0.47, 0.47, 0.88, 368.19, 215.96)">Ó</text><text class="cls-1" transform="translate(447.1 175.81) rotate(-21.27)"> </text><text class="cls-1" transform="translate(467.55 166.18) rotate(-16.05)">A</text><text class="cls-1" transform="translate(539.13 144.9) rotate(-7.22)">N</text><text class="cls-1" transform="matrix(1, 0.02, -0.02, 1, 619.81, 134.79)">T</text><text class="cls-1" transform="translate(688.77 136.86) rotate(6.59)">I</text><text class="cls-1" transform="translate(717.77 139.03) rotate(12.13)">F</text><text class="cls-1" transform="translate(784.52 152.76) rotate(20.26)">E</text><text class="cls-1" transform="translate(855.02 179.82) rotate(26.18)">I</text><text class="cls-1" transform="translate(881.6 191.29) rotate(32.09)">X</text><text class="cls-1" transform="translate(945.09 232.24) rotate(37.97)">I</text><text class="cls-1" transform="translate(968.77 248.93) rotate(43.83)">S</text><text class="cls-1" transform="translate(1022.88 300.69) rotate(51.85)">T</text><text class="cls-1" transform="translate(1060.52 346.91) rotate(58.93)">A</text><text class="cls-2" transform="matrix(0.84, 0.55, -0.55, 0.84, 335.79, 1134.57)">E</text><text class="cls-2" transform="translate(414.13 1184.42) rotate(22.73)">X</text><text class="cls-2" transform="translate(500.29 1219.16) rotate(12.17)">A</text><text class="cls-2" transform="translate(591.63 1237.79) rotate(1.32)">R</text><text class="cls-2" transform="translate(691.44 1238.78) rotate(-9.84)">C</text><text class="cls-2" transform="matrix(0.93, -0.36, 0.36, 0.93, 789.98, 1220.24)">H</text><text class="cls-2" transform="translate(879.39 1182.7) rotate(-29.24)">I</text><text class="cls-2" transform="matrix(0.8, -0.6, 0.6, 0.8, 918.04, 1162)">A</text><path d="M561.39,410c-125.12-.19-182.44-26.39-226-75.66-11.3-12.69-131.13,145.3-132.06,280.23-.09,8.24,107.24,109.47,299.5,112.89,77.61,1.39,108.54-35.1,175.68-35.37,64.82-.19,93.53,18.7,187.07,79.55l-96.87,295.14,55.75-25,210-594.55C989.24,428.87,933.58,331.26,840.7,331.26,773.09,331.17,687.89,410.16,561.39,410Z"/><path class="cls-3" d="M670.57,712c-25.93,1.11-93.07,31-168.45,32.6-141.88,3-221.43-50.38-298.29-109l-.38-.37c21.68,115.95,92.15,200.41,223.1,220.69,34.36,5.37,93.91,5.28,133.45.56,46.4-5.56,85.48,25.46,85.48,25.46l-64.64,195.32,45.56,4.35L748.27,726.33C717.34,708.46,690.3,711.14,670.57,712Z"/></g></g></svg>