<?xml version="1.0" encoding="utf-8"?>
<!-- Generator: Adobe Illustrator 24.1.0, SVG Export Plug-In . SVG Version: 6.00 Build 0)  -->
<svg version="1.1" id="Capa_1" xmlns="http://www.w3.org/2000/svg" xmlns:xlink="http://www.w3.org/1999/xlink" x="0px" y="0px"
	 viewBox="0 0 1072.9 1020.7" style="enable-background:new 0 0 1072.9 1020.7;" xml:space="preserve">
<style type="text/css">
	.st0{fill:#FF4848;}
</style>
<g id="Capa_2_1_">
	<g>
		<g id="Capa_1-2_8_">
			<path class="st0" d="M539.4,2.1l124.5,383.2c0.4,1.3,1.6,2.2,3,2.1h402.9c1.7,0,3.1,1.4,3.1,3.1c0,1-0.5,1.9-1.3,2.5l-326,236.8
				c-1.1,0.8-1.5,2.2-1.1,3.5L869,1016.6c0.5,1.6-0.4,3.4-2,3.9c-0.9,0.3-2,0.1-2.8-0.4l-326-236.8c-1.1-0.8-2.6-0.8-3.6,0
				l-326,236.8c-1.4,1-3.3,0.7-4.3-0.7c-0.6-0.8-0.7-1.8-0.4-2.8l124.6-383.2c0.4-1.3,0-2.7-1.1-3.5L1.3,393.1
				c-1.4-1-1.7-2.9-0.7-4.3c0.6-0.8,1.5-1.3,2.5-1.3H406c1.3,0,2.5-0.9,3-2.1L533.5,2.1c0.5-1.6,2.3-2.5,3.9-2
				C538.4,0.4,539.1,1.2,539.4,2.1z"/>
		</g>
	</g>
</g>
<rect x="-1116.9" y="-477.9" class="st0" width="2751" height="217"/>
</svg>
