<svg xmlns="http://www.w3.org/2000/svg" viewBox="0 0 1192.48 1338.1"><defs><style>.cls-1{fill:none;}</style></defs><g id="Capa_2" data-name="Capa 2"><g id="Capa_1-2" data-name="Capa 1"><path class="cls-1" d="M139.38,698.4c-11.4,3.1-25.2,18.2-18.3,32.1s27.7,22,36.5,17.6,16.4-17,16.5-30.2C174.08,702.2,150.78,695.3,139.38,698.4Z"/><path class="cls-1" d="M211.08,769.1c3.4-1.4,4.6-4.3,8.5-5.2s11.5-1.3,14.5-3.9,6.9-11.1,3-18.7c-5.2-10.1-17.7-8.2-20.2-3.8s-2.5,8.3-7.3,9.5-8.6-2.5-13.1,0-7.5,10.4-3.2,17.1S207.68,770.5,211.08,769.1Z"/><path class="cls-1" d="M201.88,817.5c18-2,12.2-22.1,24.2-23.7,0,0,20.5,10,32,7.5s20.1-13.6,21.2-16.3,3.6-13.1,9.5-16.7,15.3-11.3,14.1-21.9-14-23.5-28.7-22.9-23.5,11.8-26.2,28.4c-2,11.8-14.1,20.7-19,22.5-3.9,1.4-38.7,7.4-50.6,3.8s-13.7,6.4-13.5,10.8C165.88,807.5,186.28,819.2,201.88,817.5Z"/><path class="cls-1" d="M308.08,656.1c-.6-18.3-29-15.8-35.9-16.4s-19.5,10.1-25.2,20.2-31.5,27.7-23.3,40.3c0,0,10.8,15.6,19.6,5.5,11.1-12.7,23.6-14.8,34-26.1C291.08,664.6,308.78,674.4,308.08,656.1Z"/><path class="cls-1" d="M506.77,871.41c-2.44-9.85-14.88-26.69-15.91-33.43s2.07-17.87-6.48-18.91S468.83,831.25,468.32,839s-1.56,92.23-4.93,98.71,14.77,43,14.77,56.48-7.77,35.5-6,47.93,14.25,68.4,12.83,99-.91,46.9,11.27,47.93c11.88,1,10.36-23.83,10.36-23.83s-8.81-24.1-10.36-32.65,11.27-102.85,10.43-114.77-10.69-37.57-10.56-46.9S509.21,881.25,506.77,871.41Z"/><path class="cls-1" d="M391.58,1197.7c27.65-34.52,52.3-25.5,52.3-25.5s-3.1-135.7-10.6-148.8-19.9-62.3-14.3-71.6-9.5-10.2-9.8-20.6,3.4-10.4,2.5-18.9-13-13.9-11.7-23.7,7.9-18.6,3.5-35-38.5-24.9-42.6-28.1-6.9-24.9-20.2-24-18.6,12.6-18.3,40.1-17,66.6-28.4,67.5-28.1-17.7-40.1-14.2-22.1-.8-20.5-13.7c1-8.1.4-23.4.5-30,0-1.2,1.8-1.5,2-.4,1.9,9.3,8.9,18.9,19.9,17.9,17.3-1.5,24.6-7.4,19.9-33-.3-1.9,10.8,8.6,18.9,5.6,16.4-6,23.7-38.2,23.7-46.4s-9.5-32.5-24.6-18.6-14.5,31.2-24,32.5-39.6-4.1-48.4,3.3c0,0-6,27.7-35,21.7s-22.7-28-36-30.44c-26.62-12.24-52.41-1.46-61.8-21.56-16.19-34.63,19.3-68.9,13.3-85.8s-29-38.6-29-65.2V553.5s23,13.3,26.6,29,14.5,42.3,32.6,38.7,15.6-32.8,50.6-30.4c7.4.6,6.1-15.7,10.9-11.1,6,5.8,19.3,3.8,26.2-1.2,3-2.2,10-2.6,16-2.4a13.66,13.66,0,0,0,13.3-8.8c10.2-26.6,32.1-49,32.7-52.4,4.5-25.1,21.7-42.2,21.7-49.5s31.7,74.4,26.6,138.9c-2.1,26.4,42.2-4.8,37.4-18.1s-9-37.4-3-46.8,18.4-9,16.4-19.9-9-20.9-6.5-29.8,11.9,0,14.9-14.9-2.5-17.4,2-26.8,18.4-10.9,19.9-25.3-3.9-33.3,4.5-35.3,18.4,7.5,26.3,3.5,1-32.3,15.9-42.7,26.7-7.1,34.6-16.1,41.9-58.1,52.8-54.7c2.6.8-18.1,24.1-2.4,26.6,28,4.5,42.2-24.8,53.6-26.3s14.5,7,22.4,5.5,29.8-19.4,43.2-15.9-27.8,20.8-4,38.7c15.7,11.8,21.1,4.6,22.9-1.7-1.1,9-1.9,24.6,5.9,24.6,10.9,0,31.3-2,41.7,10.4s24.3,7.9,27.8,7.9-12.4,21.6-1.1,25.8c4.3,1.6,16.3,5.2,24.6-3.8,4.7-5.1-.2,38.8-5.6,55,0,0,16.9,6.5,18.9,14.9s-3.9,67.5,21.9,70,12.4-24.3,12.4-24.3-8-35.2,3.5-38.2-6.9-49.7-9.9-49.7,14.3-14.9,8.9-34.8-17.9-41.3-12.4-51.7.9,18.4,23.3,11.4,11.9-41.6,11.9-41.6c8.4-8.4,21.7-31.2,15.3-56.5-.56-2.2-1-3.95-1.33-5.33a574.41,574.41,0,1,0-511.89,1026q8.87,3.75,17.83,7.18C371.15,1240.07,375.33,1223,391.58,1197.7ZM92.69,853.26c17.35-2.39,38.3-17.65,38.5-17.81a3.5,3.5,0,1,1,4.15,5.64c-.91.67-22.57,16.47-41.69,19.11l-.48,0a3.5,3.5,0,0,1-.48-7Zm.48,32.43a3.5,3.5,0,0,1-.9-6.88c32.58-8.65,51.64-28.72,51.83-28.92a3.5,3.5,0,1,1,5.11,4.78c-.83.88-20.64,21.75-55.14,30.9A3.48,3.48,0,0,1,93.17,885.69Zm98.11,4.9a3.5,3.5,0,0,1-6.81-1.62c.33-2.2-.41-15.31-1.57-18.19-.83-1.41-7.71-2.73-11.81-3.52-1.14-.22-2.31-.44-3.47-.68-3.5,2.56-9.64,22.4-13.6,44a3.51,3.51,0,0,1-3.44,2.88,3.55,3.55,0,0,1-.64-.06,3.5,3.5,0,0,1-2.81-4.07c1.83-10,8.45-43.11,16.77-48.73a6,6,0,0,1,4.68-1l3.83.76c8.07,1.55,15,2.88,17,7.79C191.1,872.43,192,887.73,191.28,890.59Z"/><path class="cls-1" d="M395.88,1248.1c-5,1.76-6.19,5.61-5.7,9.86q8,2.77,16.08,5.32C404.75,1255.09,402.41,1245.78,395.88,1248.1Z"/><path class="cls-1" d="M991,438.7s-24.3-19-29.87,3.26c-5.36,21.43,15.47,25.14,15.47,25.14s-16.8,43.7-24.3,46.2-20.9-7.4-20.9,5,9.68,17.87-35,33.77c-28.07,12.34-15.31,27.93-20.08,35.83-8.92,14.76,1,32.8-20.4,31.8s12,25.4,7,33.3-29.8,30.3-10.9,47.7,29.3,23.8,12.4,42.7-1.5,16.4-6.5,25.3-26.4,18.1-7.5,46.4-28.9-2-22.4,60.1c4.1,39.8-2.57-7.57-20.77,4.46-9.12,6,21.27,38.24,21.27,38.24s-29.4,5.5-21.9,32.3,11.73,5.26,18.9,10.9c0,0-30.22,27.6,36.3,70.5,0,0,.12,5.36-1.29,7.94-3.54,6.51-11,19.93-10.93,52.56,0,13.56-15.47,65.33-10.58,92.9,2.94,16.56,13,27.53,4.5,35.8-.88.83-1.35,2.48-1.55,4.74a574.17,574.17,0,0,0,200.78-848.36C1038.58,377.93,1008,385.25,991,438.7Z"/><path class="cls-1" d="M644.38,1200.9c21.8-5.5,55.6-7,55.6-7s13.44-215.21-79.66-286.48c-5.7-38-7.34-62.92-25.74-75.92s11.6-41.8-7.2-39.6-4.2,81.5-14.8,96.4-26.8,80.3-1.9,97.1c0,0-14.94-.11-14.9,47.3,0,23.32-3.83,94.32-4.88,113.24-1.39,25.25,15.37,26.31,15.37,42.19,0,20.28-5,24.69,3.72,47.85,0,0-23.62-16.21-30.66-10.18-6.08,5.21,1,15.35,1,15.35-8.33-3.11-14.82-12.74-26.36-7-7.1,3.55-15.8,12.75-9.66,20,6.89,8.08-13.12,4.17-22.49-.45-15-7.4-7.5-39.8-29.3-31.7-23.58,7.83-9.93,25.2-12.42,38.23,0,0-17.19-16.85-26.12,5.4a572.64,572.64,0,0,0,164.36,23.85q23.79,0,47.26-1.91C620.54,1279,627.3,1205.21,644.38,1200.9Z"/><path class="cls-1" d="M810.68,1212.9c-.88-11.3-6.4-20.38-6.66-31.71-1.13-48.41-10.75-61.56-11.76-65.83-4.07-17.19,2.89-34.88-.23-39.36-5.09-7.31-9.69-8.14-13.73-17.53-2.95-6.88,2.19-21.6-3.69-26.35-5.12-4.14-19.65-23.53-23-31.15-9.44-21.78-14.09-35.53-18.27-33.88-5.14,2-16.73,33,18.23,62.07,17.49,14.54-7.4,53.76-7,74.15.63,34.58-4.9,53.18-11.8,83.49-2.3,10.13,25.29,32-24.41,51.9-40.4,16.1-15.3,28-4.6,31.9-4.3-.8-11.7-.4-21.2,6.3-15.4,10.9-9.9-19.4-28.8,0s-6.3-48.2-21.3,0c-1.73,5.58-3.19,8.92-4.38,10.46a568.74,568.74,0,0,0,116.24-22.24,47.08,47.08,0,0,1,9.74-15.42C789.78,1210.9,814.18,1258.1,810.68,1212.9Z"/><path d="M1183.58,41.2c-31.8-12.9-17.4-41.2-17.4-41.2s-20.9,14.9-40.2,19.9a47.55,47.55,0,0,1-33.8-3.5s1.5,25.8-32.3,41.2-54.6-20.9-51.7-11.4-.5,23.8-13.9,35.3c-10.8,9.2-26.7,3.3-31.2.9,2.6,3.6,5.4,18-8.5,41.8-15.9,27.3-33.8,1.5-22.4,14.9s9.5,44.7,0,42.2c-6.5-1.7-21.9-9.7-32.3-14.4-6.4-2.9,12,15.8-8.8,40.7-9,10.66-15.7,10.45-19.92,8.76A578.42,578.42,0,1,0,353.2,1248q10.13,4.29,20.36,8.16c5.09,17.11,24.22,18.71,24.22,18.71a52.72,52.72,0,0,1-6.52-12.33q7.86,2.68,15.78,5.15c1.18,6.63,2.19,10.36,5.51,1.67a582.38,582.38,0,0,0,330.35.35c-8.47,33.88,28.08,68.36,28.08,68.36s-14.4-27.8,2.5-39.7,1,49.7,16.9,26.3,17.9,16.4,23.3-2.5,21.4-4.5,21.4-4.5-28.8-29.8-4.5-31.3c19.39-1.2,11.65-38.13,11.24-56.3a578.14,578.14,0,0,0,199.5-861.51c-3-28,31.66-26.29,31.66-26.29,1-41.2,30.8-51.7,30.8-51.7s-14.4-25.3-10.4-45.2,27.3-25.3,27.3-25.3-7.5-4-8.4-22.8,36.3-17.9,36.3-17.9c-9.9-75,59.9-60.7,32.8-69.5-29.4-9.5-14.1-34.5-14.1-34.5C1150.48,28,1215.38,54.1,1183.58,41.2ZM354.76,1244.35a574.45,574.45,0,1,1,511.89-1026c.33,1.38.77,3.13,1.33,5.33,6.4,25.3-6.9,48.1-15.3,56.5,0,0,10.5,34.7-11.9,41.6s-17.9-21.9-23.3-11.4,7,31.8,12.4,51.7S818,396.9,821,396.9s21.4,46.7,9.9,49.7-3.5,38.2-3.5,38.2,13.4,26.8-12.4,24.3-19.9-61.6-21.9-70-18.9-14.9-18.9-14.9c5.4-16.2,10.3-60.1,5.6-55-8.3,9-20.3,5.4-24.6,3.8-11.3-4.2,4.6-25.8,1.1-25.8s-17.4,4.5-27.8-7.9-30.8-10.4-41.7-10.4c-7.8,0-7-15.6-5.9-24.6-1.8,6.3-7.2,13.5-22.9,1.7-23.8-17.9,17.4-35.3,4-38.7s-35.3,14.4-43.2,15.9-10.9-7-22.4-5.5-25.6,30.8-53.6,26.3c-15.7-2.5,5-25.8,2.4-26.6-10.9-3.4-44.9,45.7-52.8,54.7s-19.7,5.7-34.6,16.1-7.9,38.7-15.9,42.7-17.9-5.5-26.3-3.5-3,20.9-4.5,35.3-15.4,15.9-19.9,25.3,1,11.9-2,26.8-12.4,6-14.9,14.9,4.5,18.9,6.5,29.8-10.4,10.4-16.4,19.9-1.8,33.5,3,46.8-39.5,44.5-37.4,18.1c5.1-64.5-26.6-146.2-26.6-138.9s-17.2,24.4-21.7,49.5c-.6,3.4-22.5,25.8-32.7,52.4a13.66,13.66,0,0,1-13.3,8.8c-6-.2-13,.2-16,2.4-6.9,5-20.2,7-26.2,1.2-4.8-4.6-3.5,11.7-10.9,11.1-35-2.4-32.5,26.7-50.6,30.4s-29-23-32.6-38.7-26.6-29-26.6-29v77.3c0,26.6,23,48.3,29,65.2s-29.49,51.17-13.3,85.8c9.39,20.1,35.18,9.32,61.8,21.56,13.3,2.4,7,24.44,36,30.44s35-21.7,35-21.7c8.8-7.4,38.9-2.1,48.4-3.3s8.8-18.6,24-32.5,24.6,10.4,24.6,18.6-7.3,40.4-23.7,46.4c-8.1,3-19.2-7.5-18.9-5.6,4.7,25.6-2.6,31.5-19.9,33-11,1-18-8.6-19.9-17.9-.2-1.1-2-.8-2,.4-.1,6.6.5,21.9-.5,30-1.6,12.9,8.5,17.2,20.5,13.7s28.7,15.1,40.1,14.2,28.7-40.1,28.4-67.5,5-39.1,18.3-40.1,16.1,20.8,20.2,24,38.2,11.7,42.6,28.1-2.2,25.2-3.5,35,10.7,15.1,11.7,23.7-2.8,8.5-2.5,18.9,15.4,11.3,9.8,20.6,6.8,58.5,14.3,71.6,10.6,148.8,10.6,148.8-24.65-9-52.3,25.5c-16.25,25.33-20.43,42.37-19,53.83Q363.64,1248.1,354.76,1244.35Zm152-226.56c.84,11.92-12,106.22-10.43,114.77s10.36,32.65,10.36,32.65,1.52,24.84-10.36,23.83c-12.18-1-12.7-17.36-11.27-47.93s-11-86.53-12.83-99,6-34.46,6-47.93-18.13-50-14.77-56.48,4.41-90.94,4.93-98.71,7.51-21,16.06-19.95,5.44,12.18,6.48,18.91,13.47,23.58,15.91,33.43-10.47,90.16-10.6,99.48S505.88,1005.87,506.73,1017.79ZM178.38,778.2c11.9,3.6,46.7-2.4,50.6-3.8,4.9-1.8,17-10.7,19-22.5,2.7-16.6,11.5-27.8,26.2-28.4s27.5,12.3,28.7,22.9-8.2,18.3-14.1,21.9-8.3,14-9.5,16.7-9.7,13.8-21.2,16.3-32-7.5-32-7.5c-12,1.6-6.2,21.7-24.2,23.7-15.6,1.7-36-10-37-28.5C164.68,784.6,166.48,774.6,178.38,778.2Zm-20.8-30.1c-8.8,4.4-29.6-3.8-36.5-17.6s6.9-29,18.3-32.1,34.7,3.8,34.7,19.5C174,731.1,166.38,743.7,157.58,748.1Zm38.9-1.1c4.5-2.5,8.3,1.2,13.1,0s4.8-5.1,7.3-9.5,15-6.3,20.2,3.8c3.9,7.6.1,16.1-3,18.7s-10.6,3-14.5,3.9-5.1,3.8-8.5,5.2-13.5,1.7-17.8-5S192,749.4,196.48,747Zm80.8-67.4c-10.4,11.3-22.9,13.4-34,26.1-8.8,10.1-19.6-5.5-19.6-5.5-8.2-12.6,17.6-30.2,23.3-40.3s18.3-20.8,25.2-20.2,35.3-1.9,35.9,16.4S291.08,664.6,277.28,679.6ZM390.18,1258c-.49-4.25.73-8.1,5.7-9.86,6.53-2.32,8.87,7,10.38,15.18Q398.19,1260.74,390.18,1258Zm23.76,7.67c8.93-22.25,26.12-5.4,26.12-5.4,2.49-13-11.16-30.4,12.42-38.23,21.8-8.1,14.3,24.3,29.3,31.7,9.37,4.62,29.38,8.53,22.49.45-6.14-7.21,2.56-16.41,9.66-20,11.54-5.78,18,3.85,26.36,7,0,0-7-10.14-1-15.35,7-6,30.66,10.18,30.66,10.18-8.7-23.16-3.72-27.57-3.72-47.85,0-15.88-16.76-16.94-15.37-42.19,1.05-18.92,4.9-89.92,4.88-113.24,0-47.41,14.9-47.3,14.9-47.3-24.9-16.8-8.7-82.2,1.9-97.1s-4-94.2,14.8-96.4-11.1,26.6,7.2,39.6,20,37.94,25.74,75.92C713.42,978.69,700,1193.9,700,1193.9s-33.8,1.5-55.6,7c-17.08,4.31-23.84,78-18.82,86.67q-23.46,1.89-47.26,1.91A572.64,572.64,0,0,1,413.94,1265.63Zm214.16,21.73c1.19-1.54,2.65-4.88,4.38-10.46,15-48.2,2.4,19.4,21.3,0s13.4,10.9,28.8,0c9.5-6.7,16.9-7.1,21.2-6.3-10.7-3.9-35.8-15.8,4.6-31.9,49.7-19.9,22.11-41.77,24.41-51.9,6.9-30.31,12.43-48.91,11.8-83.49-.37-20.39,24.52-59.61,7-74.15-35-29.06-23.37-60-18.23-62.07,4.18-1.65,8.83,12.1,18.27,33.88,3.3,7.62,17.83,27,23,31.15,5.88,4.75.74,19.47,3.69,26.35,4,9.39,8.64,10.22,13.73,17.53,3.12,4.48-3.84,22.17.23,39.36,1,4.27,10.63,17.42,11.76,65.83.26,11.33,5.78,20.41,6.66,31.71,3.5,45.2-20.9-2-56.6,36.8a47.08,47.08,0,0,0-9.74,15.42A568.74,568.74,0,0,1,628.1,1287.36Zm524.5-572.18a575.06,575.06,0,0,1-310.67,510.36c.2-2.26.67-3.91,1.55-4.74,8.54-8.27-1.56-19.24-4.5-35.8-4.89-27.57,10.61-79.34,10.58-92.9-.07-32.63,7.39-46,10.93-52.56,1.41-2.58,1.29-7.94,1.29-7.94-66.52-42.9-36.3-70.5-36.3-70.5-7.17-5.64-11.4,15.9-18.9-10.9s21.9-32.3,21.9-32.3-30.39-32.21-21.27-38.24c18.2-12,24.87,35.34,20.77-4.46-6.5-62.1,41.2-31.8,22.4-60.1s2.5-37.5,7.5-46.4-10.4-6.5,6.5-25.3,6.5-25.3-12.4-42.7,6-39.7,10.9-47.7-28.3-34.3-7-33.3,11.48-17,20.4-31.8c4.77-7.9-8-23.49,20.08-35.83,44.7-15.9,35-21.27,35-33.77s13.4-2.5,20.9-5,24.3-46.2,24.3-46.2-20.83-3.71-15.47-25.14C966.68,419.7,991,438.7,991,438.7c17-53.45,47.6-60.77,51.73-61.52a572.41,572.41,0,0,1,109.89,338Z"/><path d="M93.17,860.23l.48,0c19.12-2.64,40.78-18.44,41.69-19.11a3.5,3.5,0,1,0-4.15-5.64c-.2.16-21.15,15.42-38.5,17.81a3.5,3.5,0,0,0,.48,7Z"/><path d="M149.21,854.67a3.5,3.5,0,1,0-5.11-4.78c-.19.2-19.25,20.27-51.83,28.92a3.5,3.5,0,1,0,1.8,6.76C128.57,876.42,148.38,855.55,149.21,854.67Z"/><path d="M172.41,860.39l-3.83-.76a6,6,0,0,0-4.68,1c-8.32,5.62-14.94,38.72-16.77,48.73a3.5,3.5,0,0,0,2.81,4.07,3.55,3.55,0,0,0,.64.06,3.51,3.51,0,0,0,3.44-2.88c4-21.65,10.1-41.49,13.6-44,1.16.24,2.33.46,3.47.68,4.1.79,11,2.11,11.81,3.52,1.16,2.88,1.9,16,1.57,18.19a3.5,3.5,0,0,0,6.81,1.62c.71-2.86-.18-18.16-1.88-22.41C187.44,863.27,180.48,861.94,172.41,860.39Z"/></g></g></svg>