<?xml version="1.0" encoding="utf-8"?>
<!-- Generator: Adobe Illustrator 24.1.0, SVG Export Plug-In . SVG Version: 6.00 Build 0)  -->
<svg version="1.1" id="Capa_1" xmlns="http://www.w3.org/2000/svg" xmlns:xlink="http://www.w3.org/1999/xlink" x="0px" y="0px"
	 viewBox="0 0 1293.1 1293.1" style="enable-background:new 0 0 1293.1 1293.1;" xml:space="preserve">
<style type="text/css">
	.st0{fill:none;}
	.st1{fill:#FF0000;}
	.st2{fill:#FFFFFF;}
</style>
<g id="Capa_2_1_">
	<g id="Capa_1-2">
		<path class="st0" d="M474,135.6l32.9-9.6l12.7,17l18.1-5.3l-57.4-74.3l-17.6,5.1l-7.7,93.2l17.6-5.1L474,135.6z M477,85.6
			l20.4,27.8l-22.5,6.6L477,85.6z"/>
		<polygon class="st0" points="641.7,129.4 659,129.8 660.6,57.2 686,57.8 686.4,43 618.2,41.6 617.9,56.3 643.4,56.9 		"/>
		<polygon class="st0" points="350.9,110.6 356.4,87.2 340.3,96.1 341.8,115.6 		"/>
		<polygon class="st0" points="557.6,135.7 550.6,79.1 592,131.5 609.2,129.3 598.5,42.6 582.5,44.5 589.7,102.4 547.6,48.8 
			530.9,50.8 541.7,137.6 		"/>
		
			<rect x="660.9" y="81" transform="matrix(0.1175 -0.9931 0.9931 0.1175 532.6515 778.8582)" class="st0" width="87.4" height="17.4"/>
		<path class="st0" d="M197.1,387.3L184,370.8l18.2-29.1l20.8,4.2l10-16l-92.3-17.3l-9.7,15.6l56.4,74.7L197.1,387.3z M153,331.5
			l33.8,7.1l-12.4,19.9L153,331.5z"/>
		<path class="st0" d="M275.6,267.1c10.8,1,20.4-2.2,28.9-9.8c6.9-6.1,11-12.9,12.4-20.3s-0.1-15.6-4.5-24.4l-16.1,7.1
			c3.1,5.6,4.5,10.8,3.9,15.2c-0.5,4.4-2.6,8.4-5.9,11.2c-4.3,4-10.2,5.8-16,4.8c-6-0.9-12.7-5.5-20-13.7
			c-7-7.8-10.5-14.7-10.6-20.9c-0.1-6,2.4-11.7,7-15.5c3.1-2.9,7.1-4.6,11.3-4.9c4.3-0.1,8.5,1.2,11.9,3.8l10-14.5
			c-6.1-4-11.9-6-17.2-6.2c-9.1-0.4-17.5,3-25.4,9.9c-9,8-13.6,17.4-13.7,28.4s4.6,21.8,14.3,32.7
			C254.9,260.4,264.9,266.1,275.6,267.1z"/>
		<path class="st0" d="M338.2,173.7c6.7,12.1,15.3,20,25.6,23.4c10.4,3.3,21.2,1.8,32.4-4.3c11.1-6.1,18-14.5,20.8-25.1
			s0.8-22.2-6-34.5c-6.8-12.5-15.5-20.4-26-23.8s-21.2-2-32.4,4.1c-5.6,3-10.5,7.1-14.6,12c-2.8,3.6-4.8,7.8-5.9,12.2
			c-1.2,4.7-1.6,9.6-1.2,14.4C331.5,158.7,334,165.9,338.2,173.7z M348.5,141.6c1.4-6.4,5.2-11.4,11.5-14.8s12.5-4,18.6-1.8
			s11.6,7.7,16.4,16.5s6.6,16.6,5.1,23.2c-2.8,12.3-15,19.9-27.3,17.1c-0.9-0.2-1.7-0.5-2.6-0.8c-6.4-2.3-12-7.8-16.7-16.5
			S347.2,148.1,348.5,141.6z"/>
		<path class="st0" d="M195.4,309.4c10.5,8.9,21.1,13.1,31.9,12.6s20-5.1,27.3-13.8c6-7,9.1-14.3,9.5-21.9s-2.3-15.4-8-23.6l-15,9.4
			c4,5.3,6,10.1,6.2,14.5c0.1,4.4-1.4,8.7-4.3,12c-3.7,4.5-9.3,7.1-15.2,7c-6.1,0-13.4-3.6-21.8-10.8c-8-6.7-12.4-13.1-13.5-19.1
			c-1.1-5.9,0.7-11.9,4.6-16.3c2.6-3.3,6.4-5.6,10.6-6.4c4.2-0.8,8.6-0.1,12.3,2l7.9-15.8c-6.7-3.1-12.6-4.3-18-3.7
			c-9.1,0.9-17,5.5-23.7,13.4c-7.8,9.2-10.9,19.2-9.6,30.1S184.2,300,195.4,309.4z"/>
		<polygon class="st0" points="1032,308.6 1043.2,321.9 1098.6,275 1115,294.4 1126.3,284.8 1082.2,232.8 1070.9,242.3 
			1087.4,261.7 		"/>
		<path class="st0" d="M1063.5,347.2l20.5-4.9l18.8,28.7l-12.5,17.2l10.3,15.8l54.2-76.7l-10-15.3l-91.4,20L1063.5,347.2z
			 M1132.7,330.6l-20.6,27.6l-12.9-19.6L1132.7,330.6z"/>
		<path class="st0" d="M1009.3,219.5c0.4,5,3.2,11.6,8.3,19.7c4,6.2,6.5,10.3,7.5,12.2c1.4,2.9,2,5.2,1.9,7c-0.2,1.9-1,3.7-2.3,5.1
			c-2.3,2.4-5.6,3.6-8.9,3.2c-3.7-0.2-7.6-2.2-11.7-6c-3.8-3.5-5.9-7.4-6.4-11.5s1-8.5,4.2-13.4l-13.5-10.3
			c-5.8,7.9-8.3,15.7-7.7,23.4s5.1,15.2,13,22.6c5.5,5,10.8,8.5,15.9,10.4c4.8,1.8,10.1,2.1,15.1,0.8c4.8-1.3,9.2-3.9,12.6-7.5
			c3.8-4.1,6.1-8.3,7-12.5c0.9-4.3,0.6-8.8-0.8-13c-1.5-4.4-4.6-10.1-9.4-17.3s-7.3-12.2-7.6-15.1c-0.3-2.1,0.4-4.1,1.8-5.7
			c1.5-1.5,3.6-2.3,5.8-2c3.5,0.4,7,2.3,10.8,5.8s5.6,6.6,6,9.6s-0.7,6.5-3.2,10.3l13.3,11.3c5.3-6,7.5-12.7,6.9-20
			s-4.9-14.6-12.8-21.9c-4.8-4.4-9.6-7.6-14.4-9.3c-4.5-1.6-9.3-1.9-13.9-0.8c-4.3,1.1-8.2,3.3-11.2,6.6
			C1010.9,206.1,1008.6,212.8,1009.3,219.5z"/>
		<polygon class="st0" points="878.1,186.2 895.7,197.1 927.8,181.5 928.2,217.2 946,228.1 944.6,174.5 989.6,152.4 972.5,141.9 
			943.4,156.9 943.5,123.9 926.2,113.3 927,162.8 		"/>
		<polygon class="st0" points="874.3,185.9 912.5,107.3 896.9,99.7 858.7,178.3 		"/>
		<polygon class="st0" points="962.2,242.2 1015.3,172.7 1001.6,162.3 948.5,231.6 		"/>
		<polygon class="st0" points="850.1,173.5 855.2,159.7 810.2,143.1 818.4,120.7 858.9,135.5 864,121.7 823.5,106.9 830.2,88.7 
			873.7,104.7 878.8,90.7 819.1,68.8 788.9,150.8 		"/>
		<polygon class="st0" points="747.4,103.2 782.3,110.9 785.5,96.4 750.5,88.7 755,68.5 795.5,77.4 798.7,62.9 741.2,50.3 
			722.5,135.6 739.4,139.4 		"/>
		
			<rect x="311.9" y="143.2" transform="matrix(0.815 -0.5794 0.5794 0.815 -49.0274 220.3)" class="st0" width="17.3" height="87.4"/>
		<path class="st0" d="M646.6,158.1c-269.8,0-488.4,218.7-488.4,488.5S376.8,1135,646.6,1135s488.5-218.7,488.5-488.5
			S916.4,158.1,646.6,158.1z M634.2,1117.4l-49.2-4.7l69.8-210.9c0,0-42.2-33.5-92.3-27.5c-42.7,5.1-107,5.2-144.1-0.6
			C277,851.9,200.9,760.6,177.5,635.5l0.4,0.4c83,63.4,168.9,120.9,322.1,117.7c81.5-1.7,153.9-34,181.9-35.2
			c21.3-0.9,50.6-3.8,83.9,15.4L634.2,1117.4z M848.1,1074.4l-60.2,27l104.7-318.6c-100.9-65.7-132-86.1-202-85.9
			c-72.5,0.3-106,39.7-189.7,38.2c-207.6-3.7-323.5-113-323.4-121.9c1-145.8,130.4-316.4,142.6-302.6c46.9,53.2,108.9,81.5,244,81.7
			c136.6,0.2,228.6-85.1,301.6-85.1c100.3,0,160.4,105.5,209.3,125.2L848.1,1074.4z"/>
		<path d="M564.1,392.3c-135.1-0.2-197-28.5-244-81.7c-12.2-13.7-141.6,156.9-142.6,302.6c-0.1,8.9,115.8,118.2,323.4,121.9
			c83.8,1.5,117.2-37.9,189.7-38.2c70-0.2,101,20.2,202,85.9l-104.7,318.7l60.2-27l226.8-642c-48.9-19.8-109-125.2-209.3-125.2
			C792.7,307.3,700.6,392.5,564.1,392.3z"/>
		<path class="st1" d="M681.9,718.4c-28,1.2-100.5,33.5-181.9,35.2c-153.2,3.2-239.1-54.4-322.1-117.7l-0.4-0.4
			c23.4,125.2,99.5,216.4,240.9,238.3c37.1,5.8,101.4,5.7,144.1,0.6c50.1-6,92.3,27.5,92.3,27.5L585,1112.7l49.2,4.7l131.6-383.6
			C732.4,714.6,703.2,717.5,681.9,718.4z"/>
		<path d="M644.8,1202.9c1.3-1.9,2-4.2,2-6.5c0.2-2.6-0.5-5.1-2-7.2c-1.6-1.9-3.9-3.2-6.4-3.7c-4.2-0.5-8.4-0.8-12.6-0.8l-13.5-0.6
			l-0.8,22.3l12.8,0.5c8.3,0.3,13.5,0.2,15.6-0.5C641.8,1205.9,643.6,1204.6,644.8,1202.9z"/>
		<polygon points="529.2,1210.1 552.1,1214.8 546.9,1180.6 		"/>
		<polygon points="920.6,1152.4 894.8,1129.5 900,1163.6 		"/>
		<path d="M646.5,0C289.5,0,0,289.5,0,646.5s289.5,646.5,646.5,646.5s646.5-289.5,646.5-646.5S1003.5,0,646.5,0z M1154.8,327.2
			l-54.2,76.7l-10.3-15.8l12.5-17.2l-18.8-28.7l-20.5,4.9l-10.1-15.4l91.4-20L1154.8,327.2z M1082.2,232.8l44.2,52l-11.4,9.6
			l-16.4-19.4l-55.4,46.9l-11.2-13.3l55.4-46.9l-16.5-19.4L1082.2,232.8z M1026.7,194.6c4.6-1.1,9.5-0.8,13.9,0.8
			c4.8,1.7,9.6,4.8,14.4,9.3c7.9,7.3,12.2,14.7,12.8,21.9s-1.6,13.9-6.9,20l-13.2-11.3c2.5-3.8,3.5-7.2,3.2-10.3s-2.4-6.3-6-9.6
			s-7.2-5.4-10.8-5.8c-2.1-0.3-4.3,0.5-5.8,2c-1.4,1.5-2,3.6-1.8,5.7c0.3,2.9,2.9,7.9,7.6,15.1s7.9,13,9.4,17.3
			c1.5,4.2,1.8,8.7,0.8,13c-0.9,4.3-3.2,8.4-7,12.5c-3.4,3.6-7.8,6.2-12.6,7.5c-5,1.3-10.3,1-15.1-0.8c-5.1-1.9-10.4-5.4-15.9-10.4
			c-7.9-7.4-12.2-14.9-13-22.6s1.9-15.5,7.7-23.4l13.5,10.3c-3.2,4.9-4.5,9.4-4.2,13.4s2.6,8,6.4,11.5c4.1,3.8,8,5.9,11.7,6
			c3.3,0.3,6.6-0.9,8.9-3.2c1.3-1.4,2.2-3.2,2.3-5.1c0.1-1.9-0.6-4.2-1.9-7c-1-1.9-3.5-6-7.5-12.2c-5.2-8.1-8-14.7-8.3-19.7
			c-0.7-6.7,1.6-13.4,6.2-18.3C1018.6,198,1022.4,195.7,1026.7,194.6L1026.7,194.6z M1015.3,172.7l-53.1,69.5l-13.7-10.6l53.1-69.4
			L1015.3,172.7z M943.5,123.9l-0.1,32.9l29.1-15l17.1,10.6l-45,22.1l1.4,53.6l-17.8-10.9l-0.4-35.7l-32.1,15.7l-17.6-10.9
			l48.9-23.4l-0.7-49.5L943.5,123.9z M912.5,107.3l-38.2,78.6l-15.6-7.6l38.2-78.6L912.5,107.3z M878.8,90.7l-5.1,13.9l-43.5-16
			l-6.7,18.2l40.5,14.9l-5.1,13.8l-40.5-14.8l-8.3,22.4l45,16.6l-5.1,13.8l-61.1-22.7l30.2-82L878.8,90.7z M741.2,50.3l57.5,12.6
			l-3.2,14.5L755,68.5l-4.5,20.2l35,7.7l-3.2,14.5l-35-7.7l-8,36.3l-16.9-3.8L741.2,50.3z M701,45.3l17.3,2L708,134.1l-17.3-2
			L701,45.3z M618.2,41.6l68.2,1.5L686,57.8l-25.4-0.6l-1.6,72.5l-17.2-0.4l1.7-72.6l-25.5-0.6L618.2,41.6z M547.6,48.8l42,53.6
			l-7.1-57.9l16-2l10.8,86.8l-17.3,2.2l-41.4-52.3l7,56.6l-15.9,1.9l-10.8-86.7L547.6,48.8z M462.8,68.6l17.6-5.1l57.3,74.3
			l-18.1,5.3l-12.7-17l-32.9,9.6l-1.3,21.1l-17.6,5.1L462.8,68.6z M356.4,87.2l-5.6,23.4l-9.1,5l-1.5-19.5L356.4,87.2z M332.1,137.8
			c1.1-4.4,3.2-8.6,5.9-12.2c4-4.9,9-9,14.6-12c11.1-6.1,21.9-7.4,32.4-4.1s19.2,11.2,26,23.8c6.8,12.3,8.8,23.8,6,34.5
			s-9.6,18.9-20.8,25.1s-22,7.5-32.4,4.3c-10.3-3.4-18.9-11.2-25.6-23.4c-4.3-7.8-6.8-14.9-7.3-21.5
			C330.5,147.3,330.9,142.4,332.1,137.8z M302.2,146.3l50.7,71.2l-14.1,10l-50.7-71.2L302.2,146.3z M245.2,189.1
			c7.9-7,16.3-10.3,25.4-9.9c5.4,0.2,11.1,2.2,17.2,6.2l-10,14.5c-3.4-2.6-7.6-4-11.9-3.8c-4.3,0.2-8.3,1.9-11.4,4.8
			c-4.6,3.8-7.1,9.5-7,15.5c0.1,6.1,3.6,13.1,10.6,20.9c7.3,8.3,14,12.8,20,13.7c5.8,1,11.7-0.8,16-4.8c3.3-2.9,5.4-6.9,5.9-11.2
			c0.6-4.4-0.7-9.6-3.9-15.2l16.1-7.1c4.5,8.8,5.9,17,4.5,24.4s-5.6,14.2-12.4,20.3c-8.5,7.6-18.2,10.9-28.9,9.8s-20.7-6.7-29.9-17
			c-9.6-10.9-14.4-21.8-14.3-32.6S236.2,197.1,245.2,189.1z M186.2,249c6.8-8,14.6-12.5,23.7-13.4c5.4-0.6,11.3,0.6,18,3.7
			l-7.9,15.7c-3.8-2.1-8.1-2.8-12.3-2c-4.2,0.8-7.9,3.1-10.6,6.4c-4,4.4-5.7,10.5-4.6,16.3c1,6,5.5,12.4,13.5,19.1
			c8.4,7.1,15.7,10.8,21.8,10.8c5.9,0.1,11.5-2.5,15.2-7c2.9-3.3,4.4-7.6,4.3-12c-0.2-4.4-2.2-9.2-6.2-14.5l15-9.4
			c5.7,8.2,8.3,16,8,23.6s-3.4,14.8-9.5,21.9c-7.3,8.7-16.4,13.3-27.3,13.8s-21.4-3.7-31.9-12.6c-11.1-9.4-17.4-19.5-18.7-30.3
			C175.2,268.2,178.4,258.2,186.2,249z M140.6,312.6l92.4,17.3l-10,16l-20.8-4.2L184,370.8l13.1,16.5l-9.7,15.6l-56.4-74.7
			L140.6,312.6z M400.9,1203.5l-57.3-31.2l41.6-76.8l55.9,30.3l-7,13l-40.7-22.1l-9.2,17.1l37.9,20.5l-7,13l-38-20.5l-11.3,20.9
			l42.2,22.8L400.9,1203.5z M466.5,1228.9L459,1194l-28.3,21.8l-19.4-7.1l43.2-32.8l-10.5-48.4l19,7l6.5,32.3l25.5-20.6l18.8,6.9
			l-39.7,30.7l12.1,52.3L466.5,1228.9z M558.1,1251.2l-3.4-21l-33.7-6.7l-10.9,18.1l-18-3.6l50-79.1l18,3.6l16.4,92.5L558.1,1251.2z
			 M538.9,1135l18.1,3.6l4.5,19.1l-10.2-2L538.9,1135z M648.6,1258.4l-11.8-19.5c-4.2-7-7-11.3-8.6-13.2c-1.4-1.7-3.1-3-5.1-3.8
			c-2.8-0.9-5.8-1.4-8.7-1.3l-3.5-0.1l-1.4,36.5l-17.3-0.8l3.4-87.3l36.5,1.4c9.2,0.4,15.8,1.4,19.8,3.2c4.1,1.8,7.5,4.8,9.7,8.7
			c2.4,4.2,3.5,9.1,3.2,13.9c-0.3,6.6-2.3,11.9-6.3,16s-9.7,6.6-17.3,7.4c3.4,2.1,6.4,4.7,9,7.7c3.5,4.6,6.6,9.4,9.3,14.6l9.8,17.4
			L648.6,1258.4z M739.6,1251.2l-28.3-37.9l-12.3,16.1l3.1,26.3l-17.2,2.1l-10.3-86.8l17.3-2l4.5,38.5l30.2-42.7l23.2-2.7
			l-28.1,37.6l40.1,49L739.6,1251.2z M826,1231.1l-10.4-36.7l-32.7,9.3l10.4,36.7l-16.7,4.7l-23.8-84l16.7-4.7l9.4,33.1l32.7-9.3
			l-9.4-33.2l16.7-4.7l23.8,84L826,1231.1z M862.1,1218.3l-32.8-81l16-6.5l32.8,80.9L862.1,1218.3z M948.4,1176.6l-16-13.9
			l-30.3,16.3l3.2,20.9l-16.3,8.7l-12-92.8l16.1-8.7l71.9,60.7L948.4,1176.6z M1027.2,1002c0.4,0.2,0.7,0.5,1,0.8
			C1027.2,1002.3,1026.7,1001.9,1027.2,1002z M646.6,1135c-269.8,0-488.4-218.7-488.4-488.5s218.7-488.5,488.4-488.5
			s488.5,218.7,488.5,488.5S916.3,1135,646.6,1135z"/>
		<path d="M370.4,181c11.8,4.2,24.9-1.9,29.1-13.8c0.3-0.8,0.6-1.7,0.8-2.6c1.5-6.6-0.3-14.3-5.1-23.2s-10.3-14.3-16.4-16.5
			s-12.3-1.7-18.6,1.8s-10.1,8.4-11.5,14.8s0.3,14.1,5.1,22.9S364,178.7,370.4,181z"/>
		<polygon points="1132.7,330.6 1099.2,338.7 1112.1,358.3 		"/>
		<polygon points="476.9,85.6 474.9,120.1 497.4,113.5 		"/>
		<polygon points="153,331.5 174.3,358.5 186.8,338.6 		"/>
		<polygon class="st2" points="377,1146.9 415,1167.4 422,1154.4 384.1,1133.9 393.3,1116.8 434,1138.9 441,1125.9 385.1,1095.6 
			343.5,1172.4 400.9,1203.5 407.9,1190.6 365.7,1167.7 		"/>
		<polygon class="st2" points="513.9,1153 495,1146.1 469.5,1166.7 463,1134.4 444,1127.5 454.6,1175.9 411.4,1208.6 430.7,1215.8 
			459,1194 466.5,1228.9 486.2,1236 474.2,1183.7 		"/>
		<path class="st2" d="M542.2,1158.8l-50,79.1l18,3.6l10.8-18.1l33.7,6.8l3.4,21l18.5,3.7l-16.4-92.5L542.2,1158.8z M529.2,1210.1
			l17.7-29.5l5.2,34.1L529.2,1210.1z"/>
		<polygon class="st2" points="561.5,1157.7 557,1138.6 538.9,1135 551.2,1155.7 		"/>
		<path class="st2" d="M650.2,1227.2c-2.6-3-5.6-5.6-9-7.7c7.5-0.8,13.3-3.3,17.3-7.4s6-9.5,6.3-16c0.2-4.9-0.9-9.7-3.2-13.9
			c-2.2-3.9-5.6-7-9.7-8.7c-4.1-1.8-10.7-2.8-19.8-3.2l-36.5-1.4l-3.4,87.3l17.3,0.8l1.4-36.5l3.5,0.1c3-0.1,5.9,0.4,8.7,1.3
			c2,0.8,3.7,2.1,5.1,3.8c1.6,1.9,4.5,6.2,8.6,13.2l11.8,19.5l20.7,0.8l-9.8-17.4C656.8,1236.7,653.7,1231.8,650.2,1227.2z
			 M624.2,1206.9l-12.8-0.5l0.8-22.3l13.5,0.6c4.2,0.1,8.4,0.3,12.6,0.8c2.5,0.5,4.8,1.8,6.4,3.7c1.5,2.1,2.2,4.7,2,7.2
			c0,2.3-0.7,4.6-2,6.5c-1.2,1.7-3,3-5,3.5C637.7,1207.1,632.5,1207.2,624.2,1206.9L624.2,1206.9z"/>
		<polygon class="st2" points="749.9,1162.1 726.7,1164.8 696.4,1207.4 691.9,1168.9 674.6,1171 684.9,1257.8 702.1,1255.7 
			699,1229.4 711.3,1213.3 739.6,1251.2 761.8,1248.6 721.8,1199.6 		"/>
		<path class="st2" d="M802.2,1147l9.4,33.1l-32.7,9.3l-9.4-33.1l-16.7,4.7l23.8,84l16.7-4.7l-10.4-36.7l32.7-9.3l10.4,36.7
			l16.7-4.7l-23.8-84L802.2,1147z M766.4,1208.7c0.5-3.4,0.8-5.8,0.8-5.8C767.2,1204.9,766.9,1206.8,766.4,1208.7L766.4,1208.7z"/>
		<polygon class="st2" points="829.3,1137.3 862.1,1218.3 878.2,1211.7 845.3,1130.8 		"/>
		<path class="st2" d="M877.1,1115.8l12,92.8l16.2-8.7l-3.2-20.8l30.2-16.2l16,13.9l16.6-8.9l-71.8-60.7L877.1,1115.8z
			 M920.6,1152.4l-20.6,11.1l-5.2-34L920.6,1152.4z"/>
		<path d="M1027.2,1002c-0.5-0.1,0,0.3,1,0.8C1027.9,1002.5,1027.6,1002.2,1027.2,1002z"/>
		<path d="M767.2,1203c0,0-0.4,2.3-0.8,5.8C766.9,1206.9,767.2,1204.9,767.2,1203z"/>
	</g>
</g>
</svg>
