<svg xmlns="http://www.w3.org/2000/svg" viewBox="0 0 1293.06 1293.06"><defs><style>.cls-1{fill:red;}.cls-2{fill:#fff;}.cls-3{opacity:0.66;isolation:isolate;}</style></defs><g id="Capa_2" data-name="Capa 2"><g id="Capa_1-2" data-name="Capa 1"><path d="M1075,432.51c-48.89-19.76-109-125.25-209.3-125.25-73,0-165,85.26-301.6,85.08-135.08-.19-197-28.49-244-81.74-12.16-13.73-141.58,156.88-142.6,302.63-.09,8.9,115.78,118.19,323.41,121.9,83.77,1.48,117.17-37.94,189.72-38.22,69.95-.19,101,20.22,202,85.91L787.92,1101.49l60.21-27Z"/><path class="cls-1" d="M634.19,1117.45,585,1112.71l69.77-210.87s-42.21-33.49-92.31-27.46c-42.68,5.1-107,5.2-144.08-.55C277,851.93,200.85,760.64,177.47,635.49l.38.37c83,63.37,168.93,120.89,322.1,117.73,81.46-1.67,153.91-34,181.93-35.16,21.34-.93,50.56-3.8,83.86,15.4Z"/><path d="M646.53,0C289.45,0,0,289.45,0,646.53s289.45,646.53,646.53,646.53,646.53-289.45,646.53-646.53S1003.52,0,646.53,0Zm508.3,327.21-54.18,76.72-10.29-15.77L1102.88,371l-18.83-28.67-20.51,4.92-10.11-15.4,91.38-20Zm-72.64-94.44,44.16,52L1115,294.37,1098.61,275l-55.38,46.94L1032,308.65l55.39-46.94-16.52-19.39Zm-55.48-38.13a24,24,0,0,1,13.92.83c4.82,1.67,9.56,4.83,14.38,9.28,7.89,7.33,12.15,14.66,12.8,21.89s-1.57,13.92-6.86,20l-13.18-11.32c2.51-3.8,3.53-7.23,3.16-10.3s-2.41-6.3-6-9.64-7.24-5.39-10.76-5.76a6.74,6.74,0,0,0-5.76,2,7,7,0,0,0-1.76,5.66c.28,2.88,2.88,7.89,7.61,15.13s7.88,13,9.37,17.34a23.93,23.93,0,0,1,.83,13c-.92,4.27-3.24,8.44-7,12.53a27,27,0,0,1-12.61,7.51,25,25,0,0,1-15.13-.83c-5.1-1.86-10.39-5.38-15.86-10.39-7.89-7.43-12.25-14.94-13-22.64s1.86-15.49,7.7-23.38l13.45,10.3c-3.15,4.91-4.54,9.37-4.17,13.45s2.6,8,6.4,11.5c4.08,3.81,8,5.85,11.69,6a11,11,0,0,0,8.91-3.24,8.42,8.42,0,0,0,2.32-5.11c.09-1.85-.56-4.17-1.95-7q-1.53-2.91-7.52-12.24c-5.19-8.07-8-14.66-8.35-19.67a23,23,0,0,1,6.22-18.28A22.67,22.67,0,0,1,1026.71,194.64Zm-11.41-21.9-53.06,69.49-13.73-10.58,53.06-69.39Zm-71.8-48.8-.1,32.94,29.13-15,17.07,10.58-45,22.08L946,228.13l-17.81-10.95-.37-35.72-32.1,15.68-17.63-10.95L927,162.82l-.74-49.54Zm-31-16.6-38.22,78.58-15.59-7.61,38.23-78.58ZM878.83,90.73l-5.1,13.92-43.51-16-6.68,18.18L864,121.72l-5.1,13.82L818.44,120.7l-8.26,22.36,45,16.6-5.1,13.82-61.14-22.72,30.15-82ZM741.16,50.28,798.68,62.9l-3.15,14.47L755,68.47l-4.45,20.22,35,7.7-3.16,14.47-35-7.7-8,36.28-16.89-3.81Zm-40.17-5,17.26,2L708,134.15l-17.26-2Zm-82.75-3.71,68.18,1.49-.37,14.75-25.42-.56L659,129.79l-17.25-.37,1.67-72.55-25.51-.56Zm-70.6,7.24,42,53.62-7.14-57.89,16-2,10.76,86.75L592,131.46,550.61,79.14l6.95,56.59-15.86,1.85L530.94,50.84ZM462.75,68.56l17.63-5.1,57.33,74.31-18.09,5.29-12.71-17L474,135.63l-1.3,21.06-17.63,5.11ZM356.43,87.21l-5.56,23.37-9.1,5-1.48-19.48Zm-24.3,50.56a34.11,34.11,0,0,1,5.93-12.25,49,49,0,0,1,14.57-12c11.13-6.12,21.89-7.42,32.38-4.08s19.2,11.23,26,23.75c6.78,12.34,8.82,23.84,6,34.51s-9.65,18.93-20.78,25.05-22,7.52-32.38,4.27c-10.29-3.43-18.92-11.23-25.6-23.38-4.27-7.79-6.77-14.94-7.33-21.52A41.82,41.82,0,0,1,332.13,137.77Zm-29.88,8.53,50.66,71.25-14.1,10-50.66-71.25ZM245.2,189.07c7.88-7,16.33-10.3,25.42-9.93,5.38.19,11.13,2.23,17.25,6.22l-10,14.47A18.65,18.65,0,0,0,266,196a17.91,17.91,0,0,0-11.41,4.82,19.62,19.62,0,0,0-7,15.5q.13,9.18,10.58,20.87c7.33,8.26,14,12.8,20,13.73a19,19,0,0,0,16-4.82,17.41,17.41,0,0,0,5.94-11.23c.56-4.45-.74-9.56-3.89-15.21l16.14-7.15c4.45,8.82,5.94,17,4.54,24.4s-5.56,14.2-12.43,20.32c-8.53,7.61-18.18,10.85-28.94,9.83s-20.69-6.68-29.88-17c-9.64-10.85-14.38-21.8-14.28-32.65S236.2,197.05,245.2,189.07Zm-59,59.93c6.78-8,14.66-12.52,23.75-13.45,5.39-.56,11.32.65,18,3.71L220.06,255a18.39,18.39,0,0,0-12.34-2,17.8,17.8,0,0,0-10.58,6.4,19.33,19.33,0,0,0-4.64,16.33c1,6,5.48,12.43,13.46,19.11,8.44,7.14,15.67,10.76,21.8,10.76a19.16,19.16,0,0,0,15.21-7,17.43,17.43,0,0,0,4.27-12c-.19-4.36-2.23-9.18-6.22-14.47l15-9.37c5.66,8.17,8.26,16,8,23.57s-3.43,14.84-9.46,21.89c-7.33,8.72-16.42,13.27-27.28,13.82s-21.43-3.71-31.91-12.61q-16.69-14.06-18.74-30.34C175.25,268.21,178.4,258.19,186.19,249Zm-45.55,63.64L233,329.9l-10,16-20.78-4.18L184,370.81l13.08,16.52-9.74,15.58L130.9,328.23Zm506,822.34c-269.78,0-488.44-218.67-488.44-488.45S376.84,158.08,646.62,158.08s488.45,218.67,488.45,488.45S916.32,1135,646.62,1135Z"/><path d="M370.35,181A21.64,21.64,0,0,0,389,179.51a21.42,21.42,0,0,0,11.22-14.84c1.49-6.59-.28-14.29-5.1-23.19S384.82,127.19,378.7,125s-12.34-1.67-18.65,1.77-10.11,8.44-11.5,14.84.27,14.1,5.1,22.92S364,178.68,370.35,181Z"/><polygon points="1132.66 330.64 1099.17 338.71 1112.07 358.29 1132.66 330.64"/><polygon points="476.94 85.63 474.9 120.05 497.35 113.46 476.94 85.63"/><polygon points="152.98 331.48 174.32 358.47 186.75 338.62 152.98 331.48"/><path class="cls-2" d="M343.54,1172.37l41.56-76.82L441,1125.89l-7.05,13-40.73-22.08-9.18,17.07,37.94,20.5-7,13L377,1146.85l-11.32,20.88,42.21,22.82-7.05,13Z"/><path class="cls-2" d="M411.35,1208.64l43.24-32.75L444,1127.47l19,7,6.49,32.29,25.51-20.6,18.84,6.87-39.71,30.71L486.22,1236l-19.67-7.14L459,1194l-28.3,21.8Z"/><path class="cls-2" d="M576.58,1254.93l-18.46-3.71-3.43-21L521,1223.48l-10.85,18.1-18-3.62,50-79.14,18,3.62Zm-24.49-40.17-5.2-34.14-17.72,29.51Zm9.37-57-10.21-2L538.92,1135,557,1138.6Z"/><path class="cls-2" d="M592.07,1256.14l3.44-87.3,36.46,1.39c9.18.37,15.77,1.4,19.85,3.16a20,20,0,0,1,9.65,8.72,25.8,25.8,0,0,1,3.25,13.91c-.28,6.59-2.32,11.88-6.31,16s-9.74,6.59-17.26,7.43a41.37,41.37,0,0,1,9,7.7,97,97,0,0,1,9.28,14.56l9.83,17.44-20.69-.83-11.78-19.48c-4.17-7-7-11.32-8.63-13.18a12.85,12.85,0,0,0-5.1-3.8,26.42,26.42,0,0,0-8.72-1.3l-3.53-.09L609.42,1257Zm19.3-49.73,12.8.47c8.35.28,13.55.18,15.59-.47a8.92,8.92,0,0,0,5-3.52,11.69,11.69,0,0,0,2-6.49,10.69,10.69,0,0,0-2-7.24,11,11,0,0,0-6.4-3.71,126,126,0,0,0-12.62-.84l-13.54-.55Z"/><path class="cls-2" d="M684.94,1257.81,674.64,1171l17.26-2,4.54,38.51,30.25-42.68,23.19-2.69-28.11,37.57,40.08,49-22.27,2.59-28.29-37.94L699,1229.42l3.06,26.26Z"/><path class="cls-2" d="M776.69,1245.1l-23.84-84,16.7-4.73,9.37,33.12,32.65-9.28L802.2,1147l16.7-4.73,23.85,84-16.7,4.73-10.39-36.74L783,1203.63l10.39,36.74Z"/><path class="cls-2" d="M862.14,1218.29l-32.85-81,16.05-6.49,32.85,80.89Z"/><path class="cls-2" d="M965,1167.73l-16.61,8.9-16-13.91L902.12,1179l3.16,20.88L889,1208.55l-12-92.77,16.14-8.72Zm-44.44-15.31-25.79-22.91,5.2,34Z"/><g class="cls-3"><path d="M766.41,1208.73a23.74,23.74,0,0,0,.84-5.75S766.88,1205.3,766.41,1208.73Z"/></g></g></g></svg>