<?xml version="1.0" encoding="utf-8"?>
<!-- Generator: Adobe Illustrator 24.1.0, SVG Export Plug-In . SVG Version: 6.00 Build 0)  -->
<svg version="1.1" id="Capa_1" xmlns="http://www.w3.org/2000/svg" xmlns:xlink="http://www.w3.org/1999/xlink" x="0px" y="0px"
	 viewBox="0 0 1239.5 1239.6" style="enable-background:new 0 0 1239.5 1239.6;" xml:space="preserve">
<style type="text/css">
	.st0{fill:#FF4848;}
</style>
<g id="Capa_2_1_">
	<g>
		<g id="Capa_1-2_8_">
			<path class="st0" d="M619.7,0C277.4,0,0,277.5,0,619.7s277.4,619.8,619.7,619.8s619.8-277.5,619.8-619.8S962,0,619.7,0z
				 M1110.3,618.3c0.2,88.7-23.9,175.7-69.5,251.8L695.4,133.6C930.3,170,1110.3,373.2,1110.3,618.3z M771.8,610.9H462l154.9-330.4
				L771.8,610.9z M538,134.6L195.6,865c-43.6-74.8-66.5-160-66.4-246.6C129.2,375.3,306,173.4,538,134.6z M288.8,980.4l112.1-239
				H833l113.8,242.5C759.1,1151.8,474.7,1150.3,288.8,980.4z"/>
		</g>
	</g>
</g>
<rect x="-472.6" y="-645.2" class="st0" width="2751" height="217"/>
</svg>
